<svg xmlns="http://www.w3.org/2000/svg" xml:space="preserve" width="512" height="512" id="navigation">
  <path fill="#284A9E" d="M7.9 255.6C7.9 118.8 118.8 7.9 255.6 7.9c136.8 0 247.7 110.9 247.7 247.7 0 136.8-110.9 247.7-247.7 247.7-136.8.1-247.7-110.8-247.7-247.7z"></path>
  <path fill="#24488E" d="M431.5 81.2c96.7 96.7 96.7 253.6 0 350.3-96.7 96.7-253.6 96.7-350.3 0L431.5 81.2z"></path>
  <path fill="#1E3F77" d="M495.8 316.4 321.1 141.7l-35.5 35.5-75.6-10.4 7.8 78.2-36.8 36.8 74.3 74.3 1.3 50.8 82.1 82.1c77.3-27.5 136.8-92.2 157.1-172.6z"></path>
  <path fill="#FFF" d="M351.9 189.8c-1-3.9-3.1-8-4.7-11.6-18.5-44.5-59-60.5-91.7-60.5-43.8 0-92 29.3-98.4 89.8v12.4c0 .5.2 5.1.4 7.5 3.6 28.8 26.3 59.5 43.3 88.3 18.3 30.9 37.2 61.3 56 91.6 11.6-19.8 23.1-39.9 34.4-59.2 3.1-5.7 6.7-11.3 9.8-16.7 2.1-3.6 6-7.2 7.8-10.6 18.3-33.5 47.7-67.2 47.7-100.4v-13.6c.1-3.6-4.3-16.3-4.6-17zm-95.5 62c-12.9 0-26.9-6.4-33.9-24.2-1-2.8-1-8.5-1-9v-8c0-22.6 19.2-32.9 36-32.9 20.6 0 36.5 16.5 36.5 37.1 0 20.5-17.1 37-37.6 37z"></path>
</svg>
